# xmcd
#
# Track frame offsets: 
#        150
#        10035
#        37184
#        56814
#        94493
#        125913
#        145392
#        161074
#        183951
#        204875
#
# Disc length: 3164 seconds
#
# Revision: 0
# Processed by: cddbd v1.5.1PL0 Copyright (c) Steve Scherf et al.
# Submitted via: ExactAudioCopy v0.95a5
#
DISCID=920c5a0a
DTITLE=Som Nosso de Cada Dia - Live '94
DYEAR=1900
DGENRE=Classic Rock
TTITLE0=Intro/O Guarani
TTITLE1=Som Nosso de Cada Dia
TTITLE2=Nada pra lembrar
TTITLE3=Bixo do mato
TTITLE4=Tinta preta fosca
TTITLE5=Docas
TTITLE6=Doce gente má
TTITLE7=O amor
TTITLE8=P'ra swingar
TTITLE9=Sinal da paranóia
EXTD=
EXTT0=
EXTT1=
EXTT2=
EXTT3=
EXTT4=
EXTT5=
EXTT6=
EXTT7=
EXTT8=
EXTT9=
PLAYORDER=
